<svg xmlns="http://www.w3.org/2000/svg" viewBox="0 0 1200 820" font-family="'Inter', 'Noto Sans KR', -apple-system, sans-serif">
  <rect width="1200" height="820" fill="#0f1629"/>
  <defs>
    <linearGradient id="goldG6b" x1="0%" y1="0%" x2="100%" y2="0%">
      <stop offset="0%" stop-color="#d4a244"/>
      <stop offset="100%" stop-color="#f0c869"/>
    </linearGradient>
  </defs>

  <text x="600" y="48" text-anchor="middle" font-size="26" font-weight="700" fill="#f5f5f5">
    Martellini PSP/GHP 동적 배분 · 시뮬레이션
  </text>
  <text x="600" y="78" text-anchor="middle" font-size="14" fill="url(#goldG6b)" font-weight="500">
    W₀=1.0, F₀=0.7, m=3, T=20년 · 세 가지 시장 시나리오
  </text>
  <line x1="200" y1="100" x2="1000" y2="100" stroke="#d4a244" stroke-width="1" opacity="0.4"/>

  <!-- UPPER CHART: Wealth paths with floor -->
  <g transform="translate(60, 130)">
    <text x="250" y="25" text-anchor="middle" font-size="15" font-weight="700" fill="#f0c869">
      자산 경로 W_t · Floor F_t 비교
    </text>

    <rect x="10" y="50" width="520" height="290" rx="6" fill="#0a1a2a" stroke="#2a3048" stroke-width="0.5"/>

    <!-- Axes -->
    <line x1="80" y1="320" x2="520" y2="320" stroke="#4a5470" stroke-width="1"/>
    <line x1="80" y1="60" x2="80" y2="320" stroke="#4a5470" stroke-width="1"/>

    <!-- x ticks (time) -->
    <g font-size="9" fill="#8a95a8">
      <text x="80" y="335" text-anchor="middle">0y</text>
      <text x="190" y="335" text-anchor="middle">5y</text>
      <text x="300" y="335" text-anchor="middle">10y</text>
      <text x="410" y="335" text-anchor="middle">15y</text>
      <text x="520" y="335" text-anchor="middle">20y</text>
    </g>

    <!-- y ticks (wealth) -->
    <g font-size="9" fill="#8a95a8">
      <text x="72" y="320" text-anchor="end">0</text>
      <text x="72" y="260" text-anchor="end">0.75</text>
      <text x="72" y="200" text-anchor="end">1.5</text>
      <text x="72" y="140" text-anchor="end">2.25</text>
      <text x="72" y="80" text-anchor="end">3.0</text>
    </g>

    <text x="540" y="324" font-size="11" fill="#a8b0c0">t</text>
    <text x="85" y="55" font-size="11" fill="#a8b0c0">W_t</text>

    <!-- Gridlines -->
    <line x1="80" y1="260" x2="520" y2="260" stroke="#2a3048" stroke-width="0.3" stroke-dasharray="2,3"/>
    <line x1="80" y1="200" x2="520" y2="200" stroke="#2a3048" stroke-width="0.3" stroke-dasharray="2,3"/>
    <line x1="80" y1="140" x2="520" y2="140" stroke="#2a3048" stroke-width="0.3" stroke-dasharray="2,3"/>

    <!-- Floor (shared, approximately) -->
    <path d="M 80.0 264.0 L 87.3 263.7 L 94.7 263.4 L 102.0 263.2 L 109.3 262.9 L 116.7 262.6 L 124.0 262.3 L 131.3 262.0 L 138.7 261.7 L 146.0 261.4 L 153.3 261.1 L 160.7 260.8 L 168.0 260.5 L 175.3 260.2 L 182.7 259.9 L 190.0 259.6 L 197.3 259.3 L 204.7 259.0 L 212.0 258.7 L 219.3 258.4 L 226.7 258.1 L 234.0 257.8 L 241.3 257.5 L 248.7 257.2 L 256.0 256.9 L 263.3 256.5 L 270.7 256.2 L 278.0 255.9 L 285.3 255.6 L 292.7 255.3 L 300.0 254.9 L 307.3 254.6 L 314.7 254.3 L 322.0 254.0 L 329.3 253.6 L 336.7 253.3 L 344.0 253.0 L 351.3 252.6 L 358.7 252.3 L 366.0 251.9 L 373.3 251.6 L 380.7 251.3 L 388.0 250.9 L 395.3 250.6 L 402.7 250.2 L 410.0 249.9 L 417.3 249.5 L 424.7 249.2 L 432.0 248.8 L 439.3 248.5 L 446.7 248.1 L 454.0 247.7 L 461.3 247.4 L 468.7 247.0 L 476.0 246.6 L 483.3 246.3 L 490.7 245.9 L 498.0 245.5 L 505.3 245.2 L 512.7 244.8 L 520.0 244.4" stroke="#8a5aaa" stroke-width="2" stroke-dasharray="6,3" fill="none"/>
    <text x="520" y="238" font-size="10" fill="#aa7aca" text-anchor="end">Floor F_t</text>

    <!-- Bull wealth -->
    <path d="M 80.0 240.0 L 87.3 228.8 L 94.7 218.9 L 102.0 219.7 L 109.3 233.2 L 116.7 241.6 L 124.0 240.7 L 131.3 242.5 L 138.7 240.3 L 146.0 243.1 L 153.3 248.6 L 160.7 246.4 L 168.0 248.5 L 175.3 250.0 L 182.7 245.9 L 190.0 244.3 L 197.3 248.6 L 204.7 241.8 L 212.0 236.0 L 219.3 236.6 L 226.7 241.2 L 234.0 237.0 L 241.3 235.5 L 248.7 230.0 L 256.0 237.7 L 263.3 234.8 L 270.7 241.1 L 278.0 234.1 L 285.3 237.8 L 292.7 228.9 L 300.0 224.5 L 307.3 222.7 L 314.7 215.3 L 322.0 220.8 L 329.3 218.2 L 336.7 222.0 L 344.0 219.2 L 351.3 223.1 L 358.7 214.3 L 366.0 215.3 L 373.3 204.5 L 380.7 200.9 L 388.0 175.3 L 395.3 187.4 L 402.7 175.7 L 410.0 146.6 L 417.3 148.1 L 424.7 136.7 L 432.0 146.9 L 439.3 145.8 L 446.7 154.3 L 454.0 126.9 L 461.3 132.4 L 468.7 74.7 L 476.0 45.7 L 483.3 54.4 L 490.7 55.1 L 498.0 52.7 L 505.3 51.8 L 512.7 19.4 L 520.0 32.9" stroke="#4cbf7a" stroke-width="2.2" fill="none"/>
    <!-- Bear wealth -->
    <path d="M 80.0 240.0 L 87.3 242.5 L 94.7 239.9 L 102.0 239.1 L 109.3 235.6 L 116.7 239.2 L 124.0 231.0 L 131.3 216.0 L 138.7 222.3 L 146.0 220.0 L 153.3 233.4 L 160.7 239.7 L 168.0 243.6 L 175.3 248.4 L 182.7 250.1 L 190.0 250.8 L 197.3 251.2 L 204.7 252.7 L 212.0 254.3 L 219.3 253.9 L 226.7 254.4 L 234.0 253.8 L 241.3 252.5 L 248.7 254.2 L 256.0 252.2 L 263.3 253.7 L 270.7 255.3 L 278.0 255.0 L 285.3 254.9 L 292.7 254.9 L 300.0 254.6 L 307.3 254.5 L 314.7 254.3 L 322.0 253.9 L 329.3 253.6 L 336.7 253.3 L 344.0 253.0 L 351.3 252.6 L 358.7 252.3 L 366.0 251.9 L 373.3 251.6 L 380.7 251.3 L 388.0 250.9 L 395.3 250.6 L 402.7 250.2 L 410.0 249.9 L 417.3 249.5 L 424.7 249.2 L 432.0 248.8 L 439.3 248.5 L 446.7 248.1 L 454.0 247.7 L 461.3 247.4 L 468.7 247.0 L 476.0 246.6 L 483.3 246.3 L 490.7 245.9 L 498.0 245.5 L 505.3 245.2 L 512.7 244.8 L 520.0 244.4" stroke="#e07a7a" stroke-width="2.2" fill="none"/>
    <!-- Normal wealth -->
    <path d="M 80.0 240.0 L 87.3 236.6 L 94.7 232.8 L 102.0 225.1 L 109.3 211.4 L 116.7 209.2 L 124.0 209.9 L 131.3 204.9 L 138.7 202.5 L 146.0 197.2 L 153.3 175.3 L 160.7 163.1 L 168.0 189.7 L 175.3 155.7 L 182.7 135.1 L 190.0 158.3 L 197.3 144.7 L 204.7 142.0 L 212.0 124.1 L 219.3 127.4 L 226.7 125.2 L 234.0 106.0 L 241.3 129.6 L 248.7 138.1 L 256.0 122.1 L 263.3 99.7 L 270.7 98.7 L 278.0 103.1 L 285.3 70.4 L 292.7 46.2 L 300.0 31.5 L 307.3 33.7 L 314.7 51.2 L 322.0 51.8 L 329.3 88.2 L 336.7 90.8 L 344.0 109.8 L 351.3 118.8 L 358.7 83.8 L 366.0 41.8 L 373.3 0.1 L 380.7 -10.1 L 388.0 -34.0 L 395.3 -48.1 L 402.7 -50.0 L 410.0 8.2 L 417.3 -16.1 L 424.7 -19.2 L 432.0 25.4 L 439.3 35.7 L 446.7 -4.0 L 454.0 -4.4 L 461.3 -36.0 L 468.7 -105.4 L 476.0 -161.6 L 483.3 -152.7 L 490.7 -214.8 L 498.0 -212.3 L 505.3 -295.3 L 512.7 -367.3 L 520.0 -389.1" stroke="#f0c869" stroke-width="2.2" fill="none"/>

    <!-- Legend -->
    <g transform="translate(110, 75)">
      <line x1="0" y1="0" x2="18" y2="0" stroke="#4cbf7a" stroke-width="2.2"/>
      <text x="24" y="4" font-size="10.5" fill="#4cbf7a">Bull (W_T=3.59)</text>
      <line x1="0" y1="18" x2="18" y2="18" stroke="#f0c869" stroke-width="2.2"/>
      <text x="24" y="22" font-size="10.5" fill="#f0c869">Normal (W_T=8.86)</text>
      <line x1="0" y1="36" x2="18" y2="36" stroke="#e07a7a" stroke-width="2.2"/>
      <text x="24" y="40" font-size="10.5" fill="#e07a7a">Bear (W_T=0.95 ≈ Floor)</text>
      <line x1="0" y1="54" x2="18" y2="54" stroke="#8a5aaa" stroke-width="2" stroke-dasharray="6,3"/>
      <text x="24" y="58" font-size="10.5" fill="#aa7aca">Floor F_t</text>
    </g>
  </g>

  <!-- UPPER RIGHT: PSP allocation paths -->
  <g transform="translate(610, 130)">
    <text x="250" y="25" text-anchor="middle" font-size="15" font-weight="700" fill="#f0c869">
      PSP 배분 비중 α_t · 동적 전환
    </text>

    <rect x="10" y="50" width="520" height="290" rx="6" fill="#0a1a2a" stroke="#2a3048" stroke-width="0.5"/>

    <!-- transform alpha coords: we used y_a = 600 - alpha*110 from original, which doesn't fit here. Rebuild. -->
    <!-- Need to re-plot alpha with coords fitting within chart area (90..320 range y) -->
  </g>

    <!-- Axes -->
    <line x1="690" y1="320" x2="1120" y2="320" stroke="#4a5470" stroke-width="1"/>
    <line x1="690" y1="70" x2="690" y2="320" stroke="#4a5470" stroke-width="1"/>

    <g font-size="9" fill="#8a95a8">
      <text x="690" y="335" text-anchor="middle">0y</text>
      <text x="797" y="335" text-anchor="middle">5y</text>
      <text x="905" y="335" text-anchor="middle">10y</text>
      <text x="1012" y="335" text-anchor="middle">15y</text>
      <text x="1120" y="335" text-anchor="middle">20y</text>
    </g>
    <g font-size="9" fill="#8a95a8">
      <text x="682" y="320" text-anchor="end">0%</text>
      <text x="682" y="258" text-anchor="end">25%</text>
      <text x="682" y="195" text-anchor="end">50%</text>
      <text x="682" y="133" text-anchor="end">75%</text>
      <text x="682" y="70" text-anchor="end">100%</text>
    </g>

    <line x1="690" y1="258" x2="1120" y2="258" stroke="#2a3048" stroke-width="0.3" stroke-dasharray="2,3"/>
    <line x1="690" y1="195" x2="1120" y2="195" stroke="#2a3048" stroke-width="0.3" stroke-dasharray="2,3"/>
    <line x1="690" y1="133" x2="1120" y2="133" stroke="#2a3048" stroke-width="0.3" stroke-dasharray="2,3"/>

    <path d="M 690.0 95.0 L 697.2 95.0 L 704.3 95.0 L 711.5 95.0 L 718.7 95.0 L 725.8 119.4 L 733.0 115.4 L 740.2 131.3 L 747.3 118.5 L 754.5 141.2 L 761.7 188.3 L 768.8 172.8 L 776.0 193.6 L 783.2 210.1 L 790.3 177.6 L 797.5 168.2 L 804.7 207.5 L 811.8 154.7 L 819.0 117.1 L 826.2 123.7 L 833.3 159.1 L 840.5 131.9 L 847.7 125.0 L 854.8 95.0 L 862.0 145.2 L 869.2 128.9 L 876.3 176.2 L 883.5 129.5 L 890.7 157.8 L 897.8 103.0 L 905.0 95.0 L 912.2 95.0 L 919.3 95.0 L 926.5 95.0 L 933.7 95.0 L 940.8 95.0 L 948.0 95.0 L 955.2 95.0 L 962.3 95.0 L 969.5 95.0 L 976.7 95.0 L 983.8 95.0 L 991.0 95.0 L 998.2 95.0 L 1005.3 95.0 L 1012.5 95.0 L 1019.7 95.0 L 1026.8 95.0 L 1034.0 95.0 L 1041.2 95.0 L 1048.3 95.0 L 1055.5 95.0 L 1062.7 95.0 L 1069.8 95.0 L 1077.0 95.0 L 1084.2 95.0 L 1091.3 95.0 L 1098.5 95.0 L 1105.7 95.0 L 1112.8 95.0 L 1120.0 95.0" stroke="#4cbf7a" stroke-width="2" fill="none"/>
    <path d="M 690.0 95.0 L 697.2 95.0 L 704.3 95.0 L 711.5 95.0 L 718.7 95.0 L 725.8 95.0 L 733.0 95.0 L 740.2 95.0 L 747.3 95.0 L 754.5 95.0 L 761.7 95.0 L 768.8 95.0 L 776.0 95.0 L 783.2 95.0 L 790.3 95.0 L 797.5 95.0 L 804.7 95.0 L 811.8 95.0 L 819.0 95.0 L 826.2 95.0 L 833.3 95.0 L 840.5 95.0 L 847.7 95.0 L 854.8 95.0 L 862.0 95.0 L 869.2 95.0 L 876.3 95.0 L 883.5 95.0 L 890.7 95.0 L 897.8 95.0 L 905.0 95.0 L 912.2 95.0 L 919.3 95.0 L 926.5 95.0 L 933.7 95.0 L 940.8 95.0 L 948.0 95.0 L 955.2 95.0 L 962.3 95.0 L 969.5 95.0 L 976.7 95.0 L 983.8 95.0 L 991.0 95.0 L 998.2 95.0 L 1005.3 95.0 L 1012.5 95.0 L 1019.7 95.0 L 1026.8 95.0 L 1034.0 95.0 L 1041.2 95.0 L 1048.3 95.0 L 1055.5 95.0 L 1062.7 95.0 L 1069.8 95.0 L 1077.0 95.0 L 1084.2 95.0 L 1091.3 95.0 L 1098.5 95.0 L 1105.7 95.0 L 1112.8 95.0 L 1120.0 95.0" stroke="#f0c869" stroke-width="2" fill="none"/>
    <path d="M 690.0 95.0 L 697.2 114.4 L 704.3 99.5 L 711.5 97.2 L 718.7 95.0 L 725.8 103.0 L 733.0 95.0 L 740.2 95.0 L 747.3 95.0 L 754.5 95.0 L 761.7 95.0 L 768.8 122.4 L 776.0 153.5 L 783.2 195.7 L 790.3 214.0 L 797.5 224.0 L 804.7 231.4 L 811.8 249.6 L 819.0 269.9 L 826.2 268.4 L 833.3 277.4 L 840.5 274.5 L 847.7 264.5 L 854.8 286.6 L 862.0 268.4 L 869.2 288.3 L 876.3 309.1 L 883.5 309.9 L 890.7 312.3 L 897.8 315.5 L 905.0 315.7 L 912.2 319.2 L 919.3 319.8 L 926.5 319.9 L 933.7 320.0 L 940.8 320.0 L 948.0 320.0 L 955.2 320.0 L 962.3 320.0 L 969.5 320.0 L 976.7 320.0 L 983.8 320.0 L 991.0 320.0 L 998.2 320.0 L 1005.3 320.0 L 1012.5 320.0 L 1019.7 320.0 L 1026.8 320.0 L 1034.0 320.0 L 1041.2 320.0 L 1048.3 320.0 L 1055.5 320.0 L 1062.7 320.0 L 1069.8 320.0 L 1077.0 320.0 L 1084.2 320.0 L 1091.3 320.0 L 1098.5 320.0 L 1105.7 320.0 L 1112.8 320.0 L 1120.0 320.0" stroke="#e07a7a" stroke-width="2" fill="none"/>

    <text x="1125" y="322" font-size="11" fill="#a8b0c0">t</text>
    <text x="694" y="65" font-size="11" fill="#a8b0c0">α_t^PSP</text>

    <!-- Annotation for Bear collapse -->
    <g>
      <line x1="905" y1="230" x2="905" y2="290" stroke="#e07a7a" stroke-width="0.5" stroke-dasharray="2,2"/>
      <text x="908" y="228" font-size="9.5" fill="#ff9090">← crisis 발생 · CPPI 자동 방어</text>
    </g>

  </g>

  <!-- Bottom: Key observations -->
  <g transform="translate(60, 500)">
    <rect x="0" y="0" width="1080" height="280" rx="10" fill="#0a1a2a" stroke="#d4a244" stroke-width="1"/>
    <text x="540" y="30" text-anchor="middle" font-size="15" font-weight="700" fill="#f0c869">세 시나리오에서 드러나는 CPPI의 3가지 특성</text>
    <line x1="30" y1="43" x2="1050" y2="43" stroke="#d4a244" stroke-width="0.3"/>

    <!-- Three columns -->
    <g transform="translate(30, 70)">
      <rect x="0" y="0" width="330" height="180" rx="8" fill="#1a3828" stroke="#4cbf7a" stroke-width="1"/>
      <text x="165" y="25" text-anchor="middle" font-size="13" fill="#7ae0a0" font-weight="700">① Bull Market 시나리오</text>
      <line x1="20" y1="37" x2="310" y2="37" stroke="#4cbf7a" stroke-width="0.3"/>
      <text x="20" y="60" font-size="11" fill="#d8e8d0">· W_T = 3.59 (3.6배 성장)</text>
      <text x="20" y="82" font-size="11" fill="#d8e8d0">· α 평균 81% (높은 PSP 비중 유지)</text>
      <text x="20" y="104" font-size="11" fill="#d8e8d0">· Floor 빠르게 멀어짐 → risk budget 확대</text>
      <text x="20" y="126" font-size="11" fill="#d8e8d0">· Upside 잘 포착 (lock-in)</text>
      <text x="20" y="160" font-size="10" fill="#a8c8b8" font-style="italic">"자산 증가 → 위험예산 증가 → 공격"</text>
    </g>

    <g transform="translate(375, 70)">
      <rect x="0" y="0" width="330" height="180" rx="8" fill="#3a2818" stroke="#f0c869" stroke-width="1"/>
      <text x="165" y="25" text-anchor="middle" font-size="13" fill="#f0c869" font-weight="700">② Normal · Aspirational 달성</text>
      <line x1="20" y1="37" x2="310" y2="37" stroke="#c99a38" stroke-width="0.3"/>
      <text x="20" y="60" font-size="11" fill="#e8d8b8">· W_T = 8.86 (8.9배)</text>
      <text x="20" y="82" font-size="11" fill="#e8d8b8">· α 평균 90% (cap까지 거의 최대)</text>
      <text x="20" y="104" font-size="11" fill="#e8d8b8">· Floor 대비 funding ratio 14배</text>
      <text x="20" y="126" font-size="11" fill="#e8d8b8">· Aspirational 초과 달성</text>
      <text x="20" y="160" font-size="10" fill="#c8b8a0" font-style="italic">"Essential + Aspirational 동시 달성"</text>
    </g>

    <g transform="translate(720, 70)">
      <rect x="0" y="0" width="330" height="180" rx="8" fill="#3a1818" stroke="#e07a7a" stroke-width="1"/>
      <text x="165" y="25" text-anchor="middle" font-size="13" fill="#ff9090" font-weight="700">③ Bear Market · Floor 보호</text>
      <line x1="20" y1="37" x2="310" y2="37" stroke="#a84848" stroke-width="0.3"/>
      <text x="20" y="60" font-size="11" fill="#e8c8c8">· W_T = 0.945 ≈ Floor (정확히 보호!)</text>
      <text x="20" y="82" font-size="11" fill="#e8c8c8">· α 평균 24% (crisis 시 α → 0)</text>
      <text x="20" y="104" font-size="11" fill="#e8c8c8">· Crisis 시점(10-13년)에 GHP 전환</text>
      <text x="20" y="126" font-size="11" fill="#e8c8c8">· Essential goal 달성 확정</text>
      <text x="20" y="160" font-size="10" fill="#c8a0a0" font-style="italic">"자산 감소 → 자동 방어 · Floor 보호"</text>
    </g>
  </g>

  <text x="1140" y="808" text-anchor="end" font-size="10" fill="#5a6478" font-style="italic">
    GBI Curriculum · Week 06 · Figure 2 · Python Monte Carlo 1 경로
  </text>
</svg>