<svg xmlns="http://www.w3.org/2000/svg" viewBox="0 0 1200 820" font-family="'Inter', 'Noto Sans KR', -apple-system, sans-serif">
  <rect width="1200" height="820" fill="#0f1629"/>
  <defs>
    <linearGradient id="goldG8b" x1="0%" y1="0%" x2="100%" y2="0%">
      <stop offset="0%" stop-color="#d4a244"/>
      <stop offset="100%" stop-color="#f0c869"/>
    </linearGradient>
  </defs>

  <text x="600" y="48" text-anchor="middle" font-size="26" font-weight="700" fill="#f5f5f5">
    DP vs TDF · Monte Carlo 실증 비교
  </text>
  <text x="600" y="78" text-anchor="middle" font-size="14" fill="url(#goldG8b)" font-weight="500">
    DORS2020 Python 구현 · W₀=100, G=200, T=10년 · n_sim=10,000 경로
  </text>
  <line x1="200" y1="100" x2="1000" y2="100" stroke="#d4a244" stroke-width="1" opacity="0.4"/>

  <!-- LEFT: Policy heatmap -->
  <g transform="translate(30, 125)">
    <text x="225" y="25" text-anchor="middle" font-size="14" font-weight="700" fill="#f0c869">
      Optimal Policy π*(W, t) Heatmap
    </text>
    <text x="225" y="42" text-anchor="middle" font-size="10" fill="#a8b0c0" font-style="italic">
      각 셀 = 최적 portfolio의 equity 비중 (파랑=보수, 금=중간, 빨강=공격)
    </text>

    <rect x="55" y="65" width="370" height="460" rx="6" fill="#0a1a2a" stroke="#2a3048" stroke-width="0.5"/>

    <rect x="70.00" y="491.60" width="33.00" height="8.40" fill="#e78076"/>
<rect x="103.00" y="491.60" width="33.00" height="8.40" fill="#e78076"/>
<rect x="136.00" y="491.60" width="33.00" height="8.40" fill="#e78076"/>
<rect x="169.00" y="491.60" width="33.00" height="8.40" fill="#e78076"/>
<rect x="202.00" y="491.60" width="33.00" height="8.40" fill="#e78076"/>
<rect x="235.00" y="491.60" width="33.00" height="8.40" fill="#e78076"/>
<rect x="268.00" y="491.60" width="33.00" height="8.40" fill="#e78076"/>
<rect x="301.00" y="491.60" width="33.00" height="8.40" fill="#e78076"/>
<rect x="334.00" y="491.60" width="33.00" height="8.40" fill="#e78076"/>
<rect x="367.00" y="491.60" width="33.00" height="8.40" fill="#72b6d9"/>
<rect x="70.00" y="483.20" width="33.00" height="8.40" fill="#e78076"/>
<rect x="103.00" y="483.20" width="33.00" height="8.40" fill="#e78076"/>
<rect x="136.00" y="483.20" width="33.00" height="8.40" fill="#e78076"/>
<rect x="169.00" y="483.20" width="33.00" height="8.40" fill="#e78076"/>
<rect x="202.00" y="483.20" width="33.00" height="8.40" fill="#e78076"/>
<rect x="235.00" y="483.20" width="33.00" height="8.40" fill="#e78076"/>
<rect x="268.00" y="483.20" width="33.00" height="8.40" fill="#e78076"/>
<rect x="301.00" y="483.20" width="33.00" height="8.40" fill="#e78076"/>
<rect x="334.00" y="483.20" width="33.00" height="8.40" fill="#e78076"/>
<rect x="367.00" y="483.20" width="33.00" height="8.40" fill="#72b6d9"/>
<rect x="70.00" y="474.80" width="33.00" height="8.40" fill="#e78076"/>
<rect x="103.00" y="474.80" width="33.00" height="8.40" fill="#e78076"/>
<rect x="136.00" y="474.80" width="33.00" height="8.40" fill="#e78076"/>
<rect x="169.00" y="474.80" width="33.00" height="8.40" fill="#e78076"/>
<rect x="202.00" y="474.80" width="33.00" height="8.40" fill="#e78076"/>
<rect x="235.00" y="474.80" width="33.00" height="8.40" fill="#e78076"/>
<rect x="268.00" y="474.80" width="33.00" height="8.40" fill="#e78076"/>
<rect x="301.00" y="474.80" width="33.00" height="8.40" fill="#e78076"/>
<rect x="334.00" y="474.80" width="33.00" height="8.40" fill="#e78076"/>
<rect x="367.00" y="474.80" width="33.00" height="8.40" fill="#72b6d9"/>
<rect x="70.00" y="466.40" width="33.00" height="8.40" fill="#e78076"/>
<rect x="103.00" y="466.40" width="33.00" height="8.40" fill="#e78076"/>
<rect x="136.00" y="466.40" width="33.00" height="8.40" fill="#e78076"/>
<rect x="169.00" y="466.40" width="33.00" height="8.40" fill="#e78076"/>
<rect x="202.00" y="466.40" width="33.00" height="8.40" fill="#e78076"/>
<rect x="235.00" y="466.40" width="33.00" height="8.40" fill="#e78076"/>
<rect x="268.00" y="466.40" width="33.00" height="8.40" fill="#e78076"/>
<rect x="301.00" y="466.40" width="33.00" height="8.40" fill="#e78076"/>
<rect x="334.00" y="466.40" width="33.00" height="8.40" fill="#e78076"/>
<rect x="367.00" y="466.40" width="33.00" height="8.40" fill="#72b6d9"/>
<rect x="70.00" y="458.00" width="33.00" height="8.40" fill="#e78076"/>
<rect x="103.00" y="458.00" width="33.00" height="8.40" fill="#e78076"/>
<rect x="136.00" y="458.00" width="33.00" height="8.40" fill="#e78076"/>
<rect x="169.00" y="458.00" width="33.00" height="8.40" fill="#e78076"/>
<rect x="202.00" y="458.00" width="33.00" height="8.40" fill="#e78076"/>
<rect x="235.00" y="458.00" width="33.00" height="8.40" fill="#e78076"/>
<rect x="268.00" y="458.00" width="33.00" height="8.40" fill="#e78076"/>
<rect x="301.00" y="458.00" width="33.00" height="8.40" fill="#e78076"/>
<rect x="334.00" y="458.00" width="33.00" height="8.40" fill="#e78076"/>
<rect x="367.00" y="458.00" width="33.00" height="8.40" fill="#72b6d9"/>
<rect x="70.00" y="449.60" width="33.00" height="8.40" fill="#e78076"/>
<rect x="103.00" y="449.60" width="33.00" height="8.40" fill="#e78076"/>
<rect x="136.00" y="449.60" width="33.00" height="8.40" fill="#e78076"/>
<rect x="169.00" y="449.60" width="33.00" height="8.40" fill="#e78076"/>
<rect x="202.00" y="449.60" width="33.00" height="8.40" fill="#e78076"/>
<rect x="235.00" y="449.60" width="33.00" height="8.40" fill="#e78076"/>
<rect x="268.00" y="449.60" width="33.00" height="8.40" fill="#e78076"/>
<rect x="301.00" y="449.60" width="33.00" height="8.40" fill="#e78076"/>
<rect x="334.00" y="449.60" width="33.00" height="8.40" fill="#e78076"/>
<rect x="367.00" y="449.60" width="33.00" height="8.40" fill="#72b6d9"/>
<rect x="70.00" y="441.20" width="33.00" height="8.40" fill="#e78076"/>
<rect x="103.00" y="441.20" width="33.00" height="8.40" fill="#e78076"/>
<rect x="136.00" y="441.20" width="33.00" height="8.40" fill="#e78076"/>
<rect x="169.00" y="441.20" width="33.00" height="8.40" fill="#e78076"/>
<rect x="202.00" y="441.20" width="33.00" height="8.40" fill="#e78076"/>
<rect x="235.00" y="441.20" width="33.00" height="8.40" fill="#e78076"/>
<rect x="268.00" y="441.20" width="33.00" height="8.40" fill="#e78076"/>
<rect x="301.00" y="441.20" width="33.00" height="8.40" fill="#e78076"/>
<rect x="334.00" y="441.20" width="33.00" height="8.40" fill="#e78076"/>
<rect x="367.00" y="441.20" width="33.00" height="8.40" fill="#72b6d9"/>
<rect x="70.00" y="432.80" width="33.00" height="8.40" fill="#e78076"/>
<rect x="103.00" y="432.80" width="33.00" height="8.40" fill="#e78076"/>
<rect x="136.00" y="432.80" width="33.00" height="8.40" fill="#e78076"/>
<rect x="169.00" y="432.80" width="33.00" height="8.40" fill="#e78076"/>
<rect x="202.00" y="432.80" width="33.00" height="8.40" fill="#e78076"/>
<rect x="235.00" y="432.80" width="33.00" height="8.40" fill="#e78076"/>
<rect x="268.00" y="432.80" width="33.00" height="8.40" fill="#e78076"/>
<rect x="301.00" y="432.80" width="33.00" height="8.40" fill="#e78076"/>
<rect x="334.00" y="432.80" width="33.00" height="8.40" fill="#e78076"/>
<rect x="367.00" y="432.80" width="33.00" height="8.40" fill="#72b6d9"/>
<rect x="70.00" y="424.40" width="33.00" height="8.40" fill="#e78076"/>
<rect x="103.00" y="424.40" width="33.00" height="8.40" fill="#e78076"/>
<rect x="136.00" y="424.40" width="33.00" height="8.40" fill="#e78076"/>
<rect x="169.00" y="424.40" width="33.00" height="8.40" fill="#e78076"/>
<rect x="202.00" y="424.40" width="33.00" height="8.40" fill="#e78076"/>
<rect x="235.00" y="424.40" width="33.00" height="8.40" fill="#e78076"/>
<rect x="268.00" y="424.40" width="33.00" height="8.40" fill="#e78076"/>
<rect x="301.00" y="424.40" width="33.00" height="8.40" fill="#e78076"/>
<rect x="334.00" y="424.40" width="33.00" height="8.40" fill="#e78076"/>
<rect x="367.00" y="424.40" width="33.00" height="8.40" fill="#72b6d9"/>
<rect x="70.00" y="416.00" width="33.00" height="8.40" fill="#e78076"/>
<rect x="103.00" y="416.00" width="33.00" height="8.40" fill="#e78076"/>
<rect x="136.00" y="416.00" width="33.00" height="8.40" fill="#e78076"/>
<rect x="169.00" y="416.00" width="33.00" height="8.40" fill="#e78076"/>
<rect x="202.00" y="416.00" width="33.00" height="8.40" fill="#e78076"/>
<rect x="235.00" y="416.00" width="33.00" height="8.40" fill="#e78076"/>
<rect x="268.00" y="416.00" width="33.00" height="8.40" fill="#e78076"/>
<rect x="301.00" y="416.00" width="33.00" height="8.40" fill="#e78076"/>
<rect x="334.00" y="416.00" width="33.00" height="8.40" fill="#e78076"/>
<rect x="367.00" y="416.00" width="33.00" height="8.40" fill="#72b6d9"/>
<rect x="70.00" y="407.60" width="33.00" height="8.40" fill="#e78076"/>
<rect x="103.00" y="407.60" width="33.00" height="8.40" fill="#e78076"/>
<rect x="136.00" y="407.60" width="33.00" height="8.40" fill="#e78076"/>
<rect x="169.00" y="407.60" width="33.00" height="8.40" fill="#e78076"/>
<rect x="202.00" y="407.60" width="33.00" height="8.40" fill="#e78076"/>
<rect x="235.00" y="407.60" width="33.00" height="8.40" fill="#e78076"/>
<rect x="268.00" y="407.60" width="33.00" height="8.40" fill="#e78076"/>
<rect x="301.00" y="407.60" width="33.00" height="8.40" fill="#e78076"/>
<rect x="334.00" y="407.60" width="33.00" height="8.40" fill="#e78076"/>
<rect x="367.00" y="407.60" width="33.00" height="8.40" fill="#72b6d9"/>
<rect x="70.00" y="399.20" width="33.00" height="8.40" fill="#e78076"/>
<rect x="103.00" y="399.20" width="33.00" height="8.40" fill="#e78076"/>
<rect x="136.00" y="399.20" width="33.00" height="8.40" fill="#e78076"/>
<rect x="169.00" y="399.20" width="33.00" height="8.40" fill="#e78076"/>
<rect x="202.00" y="399.20" width="33.00" height="8.40" fill="#e78076"/>
<rect x="235.00" y="399.20" width="33.00" height="8.40" fill="#e78076"/>
<rect x="268.00" y="399.20" width="33.00" height="8.40" fill="#e78076"/>
<rect x="301.00" y="399.20" width="33.00" height="8.40" fill="#e78076"/>
<rect x="334.00" y="399.20" width="33.00" height="8.40" fill="#e78076"/>
<rect x="367.00" y="399.20" width="33.00" height="8.40" fill="#72b6d9"/>
<rect x="70.00" y="390.80" width="33.00" height="8.40" fill="#e78076"/>
<rect x="103.00" y="390.80" width="33.00" height="8.40" fill="#e78076"/>
<rect x="136.00" y="390.80" width="33.00" height="8.40" fill="#e78076"/>
<rect x="169.00" y="390.80" width="33.00" height="8.40" fill="#e78076"/>
<rect x="202.00" y="390.80" width="33.00" height="8.40" fill="#e78076"/>
<rect x="235.00" y="390.80" width="33.00" height="8.40" fill="#e78076"/>
<rect x="268.00" y="390.80" width="33.00" height="8.40" fill="#e78076"/>
<rect x="301.00" y="390.80" width="33.00" height="8.40" fill="#e78076"/>
<rect x="334.00" y="390.80" width="33.00" height="8.40" fill="#e78076"/>
<rect x="367.00" y="390.80" width="33.00" height="8.40" fill="#72b6d9"/>
<rect x="70.00" y="382.40" width="33.00" height="8.40" fill="#e78076"/>
<rect x="103.00" y="382.40" width="33.00" height="8.40" fill="#e78076"/>
<rect x="136.00" y="382.40" width="33.00" height="8.40" fill="#e78076"/>
<rect x="169.00" y="382.40" width="33.00" height="8.40" fill="#e78076"/>
<rect x="202.00" y="382.40" width="33.00" height="8.40" fill="#e78076"/>
<rect x="235.00" y="382.40" width="33.00" height="8.40" fill="#e78076"/>
<rect x="268.00" y="382.40" width="33.00" height="8.40" fill="#e78076"/>
<rect x="301.00" y="382.40" width="33.00" height="8.40" fill="#e78076"/>
<rect x="334.00" y="382.40" width="33.00" height="8.40" fill="#e78076"/>
<rect x="367.00" y="382.40" width="33.00" height="8.40" fill="#e78076"/>
<rect x="70.00" y="374.00" width="33.00" height="8.40" fill="#e78076"/>
<rect x="103.00" y="374.00" width="33.00" height="8.40" fill="#e78076"/>
<rect x="136.00" y="374.00" width="33.00" height="8.40" fill="#e78076"/>
<rect x="169.00" y="374.00" width="33.00" height="8.40" fill="#e78076"/>
<rect x="202.00" y="374.00" width="33.00" height="8.40" fill="#e78076"/>
<rect x="235.00" y="374.00" width="33.00" height="8.40" fill="#e78076"/>
<rect x="268.00" y="374.00" width="33.00" height="8.40" fill="#e78076"/>
<rect x="301.00" y="374.00" width="33.00" height="8.40" fill="#e78076"/>
<rect x="334.00" y="374.00" width="33.00" height="8.40" fill="#e78076"/>
<rect x="367.00" y="374.00" width="33.00" height="8.40" fill="#e78076"/>
<rect x="70.00" y="365.60" width="33.00" height="8.40" fill="#e78076"/>
<rect x="103.00" y="365.60" width="33.00" height="8.40" fill="#e78076"/>
<rect x="136.00" y="365.60" width="33.00" height="8.40" fill="#e78076"/>
<rect x="169.00" y="365.60" width="33.00" height="8.40" fill="#e78076"/>
<rect x="202.00" y="365.60" width="33.00" height="8.40" fill="#e78076"/>
<rect x="235.00" y="365.60" width="33.00" height="8.40" fill="#e78076"/>
<rect x="268.00" y="365.60" width="33.00" height="8.40" fill="#e78076"/>
<rect x="301.00" y="365.60" width="33.00" height="8.40" fill="#e78076"/>
<rect x="334.00" y="365.60" width="33.00" height="8.40" fill="#e78076"/>
<rect x="367.00" y="365.60" width="33.00" height="8.40" fill="#e78076"/>
<rect x="70.00" y="357.20" width="33.00" height="8.40" fill="#e78076"/>
<rect x="103.00" y="357.20" width="33.00" height="8.40" fill="#e78076"/>
<rect x="136.00" y="357.20" width="33.00" height="8.40" fill="#e78076"/>
<rect x="169.00" y="357.20" width="33.00" height="8.40" fill="#e78076"/>
<rect x="202.00" y="357.20" width="33.00" height="8.40" fill="#e78076"/>
<rect x="235.00" y="357.20" width="33.00" height="8.40" fill="#e78076"/>
<rect x="268.00" y="357.20" width="33.00" height="8.40" fill="#e78076"/>
<rect x="301.00" y="357.20" width="33.00" height="8.40" fill="#e78076"/>
<rect x="334.00" y="357.20" width="33.00" height="8.40" fill="#e78076"/>
<rect x="367.00" y="357.20" width="33.00" height="8.40" fill="#e78076"/>
<rect x="70.00" y="348.80" width="33.00" height="8.40" fill="#e78076"/>
<rect x="103.00" y="348.80" width="33.00" height="8.40" fill="#e78076"/>
<rect x="136.00" y="348.80" width="33.00" height="8.40" fill="#e78076"/>
<rect x="169.00" y="348.80" width="33.00" height="8.40" fill="#e78076"/>
<rect x="202.00" y="348.80" width="33.00" height="8.40" fill="#e78076"/>
<rect x="235.00" y="348.80" width="33.00" height="8.40" fill="#e78076"/>
<rect x="268.00" y="348.80" width="33.00" height="8.40" fill="#e78076"/>
<rect x="301.00" y="348.80" width="33.00" height="8.40" fill="#e78076"/>
<rect x="334.00" y="348.80" width="33.00" height="8.40" fill="#e78076"/>
<rect x="367.00" y="348.80" width="33.00" height="8.40" fill="#e78076"/>
<rect x="70.00" y="340.40" width="33.00" height="8.40" fill="#e78076"/>
<rect x="103.00" y="340.40" width="33.00" height="8.40" fill="#e78076"/>
<rect x="136.00" y="340.40" width="33.00" height="8.40" fill="#e78076"/>
<rect x="169.00" y="340.40" width="33.00" height="8.40" fill="#e78076"/>
<rect x="202.00" y="340.40" width="33.00" height="8.40" fill="#e78076"/>
<rect x="235.00" y="340.40" width="33.00" height="8.40" fill="#e78076"/>
<rect x="268.00" y="340.40" width="33.00" height="8.40" fill="#e78076"/>
<rect x="301.00" y="340.40" width="33.00" height="8.40" fill="#e78076"/>
<rect x="334.00" y="340.40" width="33.00" height="8.40" fill="#e78076"/>
<rect x="367.00" y="340.40" width="33.00" height="8.40" fill="#e78076"/>
<rect x="70.00" y="332.00" width="33.00" height="8.40" fill="#e78076"/>
<rect x="103.00" y="332.00" width="33.00" height="8.40" fill="#e78076"/>
<rect x="136.00" y="332.00" width="33.00" height="8.40" fill="#e78076"/>
<rect x="169.00" y="332.00" width="33.00" height="8.40" fill="#e78076"/>
<rect x="202.00" y="332.00" width="33.00" height="8.40" fill="#e78076"/>
<rect x="235.00" y="332.00" width="33.00" height="8.40" fill="#e78076"/>
<rect x="268.00" y="332.00" width="33.00" height="8.40" fill="#e78076"/>
<rect x="301.00" y="332.00" width="33.00" height="8.40" fill="#e78076"/>
<rect x="334.00" y="332.00" width="33.00" height="8.40" fill="#e78076"/>
<rect x="367.00" y="332.00" width="33.00" height="8.40" fill="#e78076"/>
<rect x="70.00" y="323.60" width="33.00" height="8.40" fill="#e78076"/>
<rect x="103.00" y="323.60" width="33.00" height="8.40" fill="#e78076"/>
<rect x="136.00" y="323.60" width="33.00" height="8.40" fill="#e78076"/>
<rect x="169.00" y="323.60" width="33.00" height="8.40" fill="#e78076"/>
<rect x="202.00" y="323.60" width="33.00" height="8.40" fill="#e78076"/>
<rect x="235.00" y="323.60" width="33.00" height="8.40" fill="#e78076"/>
<rect x="268.00" y="323.60" width="33.00" height="8.40" fill="#e78076"/>
<rect x="301.00" y="323.60" width="33.00" height="8.40" fill="#e78076"/>
<rect x="334.00" y="323.60" width="33.00" height="8.40" fill="#e78076"/>
<rect x="367.00" y="323.60" width="33.00" height="8.40" fill="#e78076"/>
<rect x="70.00" y="315.20" width="33.00" height="8.40" fill="#e78076"/>
<rect x="103.00" y="315.20" width="33.00" height="8.40" fill="#e78076"/>
<rect x="136.00" y="315.20" width="33.00" height="8.40" fill="#e78076"/>
<rect x="169.00" y="315.20" width="33.00" height="8.40" fill="#e78076"/>
<rect x="202.00" y="315.20" width="33.00" height="8.40" fill="#e78076"/>
<rect x="235.00" y="315.20" width="33.00" height="8.40" fill="#e78076"/>
<rect x="268.00" y="315.20" width="33.00" height="8.40" fill="#e78076"/>
<rect x="301.00" y="315.20" width="33.00" height="8.40" fill="#e78076"/>
<rect x="334.00" y="315.20" width="33.00" height="8.40" fill="#e78076"/>
<rect x="367.00" y="315.20" width="33.00" height="8.40" fill="#e78076"/>
<rect x="70.00" y="306.80" width="33.00" height="8.40" fill="#e78076"/>
<rect x="103.00" y="306.80" width="33.00" height="8.40" fill="#e78076"/>
<rect x="136.00" y="306.80" width="33.00" height="8.40" fill="#e78076"/>
<rect x="169.00" y="306.80" width="33.00" height="8.40" fill="#e78076"/>
<rect x="202.00" y="306.80" width="33.00" height="8.40" fill="#e78076"/>
<rect x="235.00" y="306.80" width="33.00" height="8.40" fill="#e78076"/>
<rect x="268.00" y="306.80" width="33.00" height="8.40" fill="#e78076"/>
<rect x="301.00" y="306.80" width="33.00" height="8.40" fill="#e78076"/>
<rect x="334.00" y="306.80" width="33.00" height="8.40" fill="#e78076"/>
<rect x="367.00" y="306.80" width="33.00" height="8.40" fill="#e78076"/>
<rect x="70.00" y="298.40" width="33.00" height="8.40" fill="#e78076"/>
<rect x="103.00" y="298.40" width="33.00" height="8.40" fill="#e78076"/>
<rect x="136.00" y="298.40" width="33.00" height="8.40" fill="#e78076"/>
<rect x="169.00" y="298.40" width="33.00" height="8.40" fill="#e78076"/>
<rect x="202.00" y="298.40" width="33.00" height="8.40" fill="#e78076"/>
<rect x="235.00" y="298.40" width="33.00" height="8.40" fill="#e78076"/>
<rect x="268.00" y="298.40" width="33.00" height="8.40" fill="#e78076"/>
<rect x="301.00" y="298.40" width="33.00" height="8.40" fill="#e78076"/>
<rect x="334.00" y="298.40" width="33.00" height="8.40" fill="#e78076"/>
<rect x="367.00" y="298.40" width="33.00" height="8.40" fill="#e78076"/>
<rect x="70.00" y="290.00" width="33.00" height="8.40" fill="#e78076"/>
<rect x="103.00" y="290.00" width="33.00" height="8.40" fill="#e78076"/>
<rect x="136.00" y="290.00" width="33.00" height="8.40" fill="#e78076"/>
<rect x="169.00" y="290.00" width="33.00" height="8.40" fill="#e78076"/>
<rect x="202.00" y="290.00" width="33.00" height="8.40" fill="#e78076"/>
<rect x="235.00" y="290.00" width="33.00" height="8.40" fill="#e78076"/>
<rect x="268.00" y="290.00" width="33.00" height="8.40" fill="#e78076"/>
<rect x="301.00" y="290.00" width="33.00" height="8.40" fill="#e78076"/>
<rect x="334.00" y="290.00" width="33.00" height="8.40" fill="#e78076"/>
<rect x="367.00" y="290.00" width="33.00" height="8.40" fill="#e78076"/>
<rect x="70.00" y="281.60" width="33.00" height="8.40" fill="#e78076"/>
<rect x="103.00" y="281.60" width="33.00" height="8.40" fill="#e78076"/>
<rect x="136.00" y="281.60" width="33.00" height="8.40" fill="#e78076"/>
<rect x="169.00" y="281.60" width="33.00" height="8.40" fill="#e78076"/>
<rect x="202.00" y="281.60" width="33.00" height="8.40" fill="#e78076"/>
<rect x="235.00" y="281.60" width="33.00" height="8.40" fill="#e78076"/>
<rect x="268.00" y="281.60" width="33.00" height="8.40" fill="#e78076"/>
<rect x="301.00" y="281.60" width="33.00" height="8.40" fill="#e78076"/>
<rect x="334.00" y="281.60" width="33.00" height="8.40" fill="#e78076"/>
<rect x="367.00" y="281.60" width="33.00" height="8.40" fill="#e78076"/>
<rect x="70.00" y="273.20" width="33.00" height="8.40" fill="#e78076"/>
<rect x="103.00" y="273.20" width="33.00" height="8.40" fill="#e78076"/>
<rect x="136.00" y="273.20" width="33.00" height="8.40" fill="#e78076"/>
<rect x="169.00" y="273.20" width="33.00" height="8.40" fill="#e78076"/>
<rect x="202.00" y="273.20" width="33.00" height="8.40" fill="#e78076"/>
<rect x="235.00" y="273.20" width="33.00" height="8.40" fill="#e78076"/>
<rect x="268.00" y="273.20" width="33.00" height="8.40" fill="#e78076"/>
<rect x="301.00" y="273.20" width="33.00" height="8.40" fill="#e78076"/>
<rect x="334.00" y="273.20" width="33.00" height="8.40" fill="#e78076"/>
<rect x="367.00" y="273.20" width="33.00" height="8.40" fill="#e78076"/>
<rect x="70.00" y="264.80" width="33.00" height="8.40" fill="#e78076"/>
<rect x="103.00" y="264.80" width="33.00" height="8.40" fill="#e78076"/>
<rect x="136.00" y="264.80" width="33.00" height="8.40" fill="#e78076"/>
<rect x="169.00" y="264.80" width="33.00" height="8.40" fill="#e78076"/>
<rect x="202.00" y="264.80" width="33.00" height="8.40" fill="#e78076"/>
<rect x="235.00" y="264.80" width="33.00" height="8.40" fill="#e78076"/>
<rect x="268.00" y="264.80" width="33.00" height="8.40" fill="#e78076"/>
<rect x="301.00" y="264.80" width="33.00" height="8.40" fill="#e78076"/>
<rect x="334.00" y="264.80" width="33.00" height="8.40" fill="#e78076"/>
<rect x="367.00" y="264.80" width="33.00" height="8.40" fill="#e78076"/>
<rect x="70.00" y="256.40" width="33.00" height="8.40" fill="#e88a74"/>
<rect x="103.00" y="256.40" width="33.00" height="8.40" fill="#e78076"/>
<rect x="136.00" y="256.40" width="33.00" height="8.40" fill="#e78076"/>
<rect x="169.00" y="256.40" width="33.00" height="8.40" fill="#e78076"/>
<rect x="202.00" y="256.40" width="33.00" height="8.40" fill="#e78076"/>
<rect x="235.00" y="256.40" width="33.00" height="8.40" fill="#e78076"/>
<rect x="268.00" y="256.40" width="33.00" height="8.40" fill="#e78076"/>
<rect x="301.00" y="256.40" width="33.00" height="8.40" fill="#e78076"/>
<rect x="334.00" y="256.40" width="33.00" height="8.40" fill="#e78076"/>
<rect x="367.00" y="256.40" width="33.00" height="8.40" fill="#e78076"/>
<rect x="70.00" y="248.00" width="33.00" height="8.40" fill="#ea9e70"/>
<rect x="103.00" y="248.00" width="33.00" height="8.40" fill="#ea9e70"/>
<rect x="136.00" y="248.00" width="33.00" height="8.40" fill="#e88a74"/>
<rect x="169.00" y="248.00" width="33.00" height="8.40" fill="#e78076"/>
<rect x="202.00" y="248.00" width="33.00" height="8.40" fill="#e78076"/>
<rect x="235.00" y="248.00" width="33.00" height="8.40" fill="#e78076"/>
<rect x="268.00" y="248.00" width="33.00" height="8.40" fill="#e78076"/>
<rect x="301.00" y="248.00" width="33.00" height="8.40" fill="#e78076"/>
<rect x="334.00" y="248.00" width="33.00" height="8.40" fill="#e78076"/>
<rect x="367.00" y="248.00" width="33.00" height="8.40" fill="#e78076"/>
<rect x="70.00" y="239.60" width="33.00" height="8.40" fill="#edb36c"/>
<rect x="103.00" y="239.60" width="33.00" height="8.40" fill="#edb36c"/>
<rect x="136.00" y="239.60" width="33.00" height="8.40" fill="#eca96e"/>
<rect x="169.00" y="239.60" width="33.00" height="8.40" fill="#ea9e70"/>
<rect x="202.00" y="239.60" width="33.00" height="8.40" fill="#e88a74"/>
<rect x="235.00" y="239.60" width="33.00" height="8.40" fill="#e78076"/>
<rect x="268.00" y="239.60" width="33.00" height="8.40" fill="#e78076"/>
<rect x="301.00" y="239.60" width="33.00" height="8.40" fill="#e78076"/>
<rect x="334.00" y="239.60" width="33.00" height="8.40" fill="#e78076"/>
<rect x="367.00" y="239.60" width="33.00" height="8.40" fill="#e78076"/>
<rect x="70.00" y="231.20" width="33.00" height="8.40" fill="#efc869"/>
<rect x="103.00" y="231.20" width="33.00" height="8.40" fill="#efc869"/>
<rect x="136.00" y="231.20" width="33.00" height="8.40" fill="#eebd6a"/>
<rect x="169.00" y="231.20" width="33.00" height="8.40" fill="#edb36c"/>
<rect x="202.00" y="231.20" width="33.00" height="8.40" fill="#eca96e"/>
<rect x="235.00" y="231.20" width="33.00" height="8.40" fill="#ea9e70"/>
<rect x="268.00" y="231.20" width="33.00" height="8.40" fill="#e88a74"/>
<rect x="301.00" y="231.20" width="33.00" height="8.40" fill="#e78076"/>
<rect x="334.00" y="231.20" width="33.00" height="8.40" fill="#e78076"/>
<rect x="367.00" y="231.20" width="33.00" height="8.40" fill="#e78076"/>
<rect x="70.00" y="222.80" width="33.00" height="8.40" fill="#ccc289"/>
<rect x="103.00" y="222.80" width="33.00" height="8.40" fill="#ccc289"/>
<rect x="136.00" y="222.80" width="33.00" height="8.40" fill="#dec579"/>
<rect x="169.00" y="222.80" width="33.00" height="8.40" fill="#dec579"/>
<rect x="202.00" y="222.80" width="33.00" height="8.40" fill="#efc869"/>
<rect x="235.00" y="222.80" width="33.00" height="8.40" fill="#eebd6a"/>
<rect x="268.00" y="222.80" width="33.00" height="8.40" fill="#edb36c"/>
<rect x="301.00" y="222.80" width="33.00" height="8.40" fill="#eca96e"/>
<rect x="334.00" y="222.80" width="33.00" height="8.40" fill="#e78076"/>
<rect x="367.00" y="222.80" width="33.00" height="8.40" fill="#e78076"/>
<rect x="70.00" y="214.40" width="33.00" height="8.40" fill="#bac099"/>
<rect x="103.00" y="214.40" width="33.00" height="8.40" fill="#bac099"/>
<rect x="136.00" y="214.40" width="33.00" height="8.40" fill="#bac099"/>
<rect x="169.00" y="214.40" width="33.00" height="8.40" fill="#bac099"/>
<rect x="202.00" y="214.40" width="33.00" height="8.40" fill="#bac099"/>
<rect x="235.00" y="214.40" width="33.00" height="8.40" fill="#bac099"/>
<rect x="268.00" y="214.40" width="33.00" height="8.40" fill="#ccc289"/>
<rect x="301.00" y="214.40" width="33.00" height="8.40" fill="#ccc289"/>
<rect x="334.00" y="214.40" width="33.00" height="8.40" fill="#dec579"/>
<rect x="367.00" y="214.40" width="33.00" height="8.40" fill="#efc869"/>
<rect x="70.00" y="206.00" width="33.00" height="8.40" fill="#a8bda9"/>
<rect x="103.00" y="206.00" width="33.00" height="8.40" fill="#a8bda9"/>
<rect x="136.00" y="206.00" width="33.00" height="8.40" fill="#a8bda9"/>
<rect x="169.00" y="206.00" width="33.00" height="8.40" fill="#a8bda9"/>
<rect x="202.00" y="206.00" width="33.00" height="8.40" fill="#a8bda9"/>
<rect x="235.00" y="206.00" width="33.00" height="8.40" fill="#96bbb9"/>
<rect x="268.00" y="206.00" width="33.00" height="8.40" fill="#96bbb9"/>
<rect x="301.00" y="206.00" width="33.00" height="8.40" fill="#96bbb9"/>
<rect x="334.00" y="206.00" width="33.00" height="8.40" fill="#96bbb9"/>
<rect x="367.00" y="206.00" width="33.00" height="8.40" fill="#84b8c9"/>
<rect x="70.00" y="197.60" width="33.00" height="8.40" fill="#96bbb9"/>
<rect x="103.00" y="197.60" width="33.00" height="8.40" fill="#96bbb9"/>
<rect x="136.00" y="197.60" width="33.00" height="8.40" fill="#96bbb9"/>
<rect x="169.00" y="197.60" width="33.00" height="8.40" fill="#96bbb9"/>
<rect x="202.00" y="197.60" width="33.00" height="8.40" fill="#96bbb9"/>
<rect x="235.00" y="197.60" width="33.00" height="8.40" fill="#96bbb9"/>
<rect x="268.00" y="197.60" width="33.00" height="8.40" fill="#84b8c9"/>
<rect x="301.00" y="197.60" width="33.00" height="8.40" fill="#84b8c9"/>
<rect x="334.00" y="197.60" width="33.00" height="8.40" fill="#84b8c9"/>
<rect x="367.00" y="197.60" width="33.00" height="8.40" fill="#84b8c9"/>
<rect x="70.00" y="189.20" width="33.00" height="8.40" fill="#96bbb9"/>
<rect x="103.00" y="189.20" width="33.00" height="8.40" fill="#96bbb9"/>
<rect x="136.00" y="189.20" width="33.00" height="8.40" fill="#96bbb9"/>
<rect x="169.00" y="189.20" width="33.00" height="8.40" fill="#84b8c9"/>
<rect x="202.00" y="189.20" width="33.00" height="8.40" fill="#84b8c9"/>
<rect x="235.00" y="189.20" width="33.00" height="8.40" fill="#84b8c9"/>
<rect x="268.00" y="189.20" width="33.00" height="8.40" fill="#84b8c9"/>
<rect x="301.00" y="189.20" width="33.00" height="8.40" fill="#84b8c9"/>
<rect x="334.00" y="189.20" width="33.00" height="8.40" fill="#84b8c9"/>
<rect x="367.00" y="189.20" width="33.00" height="8.40" fill="#72b6d9"/>
<rect x="70.00" y="180.80" width="33.00" height="8.40" fill="#84b8c9"/>
<rect x="103.00" y="180.80" width="33.00" height="8.40" fill="#84b8c9"/>
<rect x="136.00" y="180.80" width="33.00" height="8.40" fill="#84b8c9"/>
<rect x="169.00" y="180.80" width="33.00" height="8.40" fill="#84b8c9"/>
<rect x="202.00" y="180.80" width="33.00" height="8.40" fill="#84b8c9"/>
<rect x="235.00" y="180.80" width="33.00" height="8.40" fill="#84b8c9"/>
<rect x="268.00" y="180.80" width="33.00" height="8.40" fill="#84b8c9"/>
<rect x="301.00" y="180.80" width="33.00" height="8.40" fill="#84b8c9"/>
<rect x="334.00" y="180.80" width="33.00" height="8.40" fill="#84b8c9"/>
<rect x="367.00" y="180.80" width="33.00" height="8.40" fill="#72b6d9"/>
<rect x="70.00" y="172.40" width="33.00" height="8.40" fill="#84b8c9"/>
<rect x="103.00" y="172.40" width="33.00" height="8.40" fill="#84b8c9"/>
<rect x="136.00" y="172.40" width="33.00" height="8.40" fill="#84b8c9"/>
<rect x="169.00" y="172.40" width="33.00" height="8.40" fill="#84b8c9"/>
<rect x="202.00" y="172.40" width="33.00" height="8.40" fill="#84b8c9"/>
<rect x="235.00" y="172.40" width="33.00" height="8.40" fill="#84b8c9"/>
<rect x="268.00" y="172.40" width="33.00" height="8.40" fill="#84b8c9"/>
<rect x="301.00" y="172.40" width="33.00" height="8.40" fill="#84b8c9"/>
<rect x="334.00" y="172.40" width="33.00" height="8.40" fill="#72b6d9"/>
<rect x="367.00" y="172.40" width="33.00" height="8.40" fill="#72b6d9"/>
<rect x="70.00" y="164.00" width="33.00" height="8.40" fill="#84b8c9"/>
<rect x="103.00" y="164.00" width="33.00" height="8.40" fill="#84b8c9"/>
<rect x="136.00" y="164.00" width="33.00" height="8.40" fill="#84b8c9"/>
<rect x="169.00" y="164.00" width="33.00" height="8.40" fill="#84b8c9"/>
<rect x="202.00" y="164.00" width="33.00" height="8.40" fill="#84b8c9"/>
<rect x="235.00" y="164.00" width="33.00" height="8.40" fill="#84b8c9"/>
<rect x="268.00" y="164.00" width="33.00" height="8.40" fill="#84b8c9"/>
<rect x="301.00" y="164.00" width="33.00" height="8.40" fill="#84b8c9"/>
<rect x="334.00" y="164.00" width="33.00" height="8.40" fill="#72b6d9"/>
<rect x="367.00" y="164.00" width="33.00" height="8.40" fill="#72b6d9"/>
<rect x="70.00" y="155.60" width="33.00" height="8.40" fill="#84b8c9"/>
<rect x="103.00" y="155.60" width="33.00" height="8.40" fill="#84b8c9"/>
<rect x="136.00" y="155.60" width="33.00" height="8.40" fill="#84b8c9"/>
<rect x="169.00" y="155.60" width="33.00" height="8.40" fill="#84b8c9"/>
<rect x="202.00" y="155.60" width="33.00" height="8.40" fill="#84b8c9"/>
<rect x="235.00" y="155.60" width="33.00" height="8.40" fill="#84b8c9"/>
<rect x="268.00" y="155.60" width="33.00" height="8.40" fill="#84b8c9"/>
<rect x="301.00" y="155.60" width="33.00" height="8.40" fill="#72b6d9"/>
<rect x="334.00" y="155.60" width="33.00" height="8.40" fill="#72b6d9"/>
<rect x="367.00" y="155.60" width="33.00" height="8.40" fill="#72b6d9"/>
<rect x="70.00" y="147.20" width="33.00" height="8.40" fill="#84b8c9"/>
<rect x="103.00" y="147.20" width="33.00" height="8.40" fill="#84b8c9"/>
<rect x="136.00" y="147.20" width="33.00" height="8.40" fill="#84b8c9"/>
<rect x="169.00" y="147.20" width="33.00" height="8.40" fill="#84b8c9"/>
<rect x="202.00" y="147.20" width="33.00" height="8.40" fill="#84b8c9"/>
<rect x="235.00" y="147.20" width="33.00" height="8.40" fill="#84b8c9"/>
<rect x="268.00" y="147.20" width="33.00" height="8.40" fill="#84b8c9"/>
<rect x="301.00" y="147.20" width="33.00" height="8.40" fill="#72b6d9"/>
<rect x="334.00" y="147.20" width="33.00" height="8.40" fill="#72b6d9"/>
<rect x="367.00" y="147.20" width="33.00" height="8.40" fill="#72b6d9"/>
<rect x="70.00" y="138.80" width="33.00" height="8.40" fill="#84b8c9"/>
<rect x="103.00" y="138.80" width="33.00" height="8.40" fill="#84b8c9"/>
<rect x="136.00" y="138.80" width="33.00" height="8.40" fill="#84b8c9"/>
<rect x="169.00" y="138.80" width="33.00" height="8.40" fill="#84b8c9"/>
<rect x="202.00" y="138.80" width="33.00" height="8.40" fill="#84b8c9"/>
<rect x="235.00" y="138.80" width="33.00" height="8.40" fill="#84b8c9"/>
<rect x="268.00" y="138.80" width="33.00" height="8.40" fill="#72b6d9"/>
<rect x="301.00" y="138.80" width="33.00" height="8.40" fill="#72b6d9"/>
<rect x="334.00" y="138.80" width="33.00" height="8.40" fill="#72b6d9"/>
<rect x="367.00" y="138.80" width="33.00" height="8.40" fill="#72b6d9"/>
<rect x="70.00" y="130.40" width="33.00" height="8.40" fill="#84b8c9"/>
<rect x="103.00" y="130.40" width="33.00" height="8.40" fill="#84b8c9"/>
<rect x="136.00" y="130.40" width="33.00" height="8.40" fill="#84b8c9"/>
<rect x="169.00" y="130.40" width="33.00" height="8.40" fill="#84b8c9"/>
<rect x="202.00" y="130.40" width="33.00" height="8.40" fill="#84b8c9"/>
<rect x="235.00" y="130.40" width="33.00" height="8.40" fill="#84b8c9"/>
<rect x="268.00" y="130.40" width="33.00" height="8.40" fill="#72b6d9"/>
<rect x="301.00" y="130.40" width="33.00" height="8.40" fill="#72b6d9"/>
<rect x="334.00" y="130.40" width="33.00" height="8.40" fill="#72b6d9"/>
<rect x="367.00" y="130.40" width="33.00" height="8.40" fill="#72b6d9"/>
<rect x="70.00" y="122.00" width="33.00" height="8.40" fill="#84b8c9"/>
<rect x="103.00" y="122.00" width="33.00" height="8.40" fill="#84b8c9"/>
<rect x="136.00" y="122.00" width="33.00" height="8.40" fill="#84b8c9"/>
<rect x="169.00" y="122.00" width="33.00" height="8.40" fill="#84b8c9"/>
<rect x="202.00" y="122.00" width="33.00" height="8.40" fill="#72b6d9"/>
<rect x="235.00" y="122.00" width="33.00" height="8.40" fill="#72b6d9"/>
<rect x="268.00" y="122.00" width="33.00" height="8.40" fill="#72b6d9"/>
<rect x="301.00" y="122.00" width="33.00" height="8.40" fill="#72b6d9"/>
<rect x="334.00" y="122.00" width="33.00" height="8.40" fill="#72b6d9"/>
<rect x="367.00" y="122.00" width="33.00" height="8.40" fill="#72b6d9"/>
<rect x="70.00" y="113.60" width="33.00" height="8.40" fill="#84b8c9"/>
<rect x="103.00" y="113.60" width="33.00" height="8.40" fill="#84b8c9"/>
<rect x="136.00" y="113.60" width="33.00" height="8.40" fill="#72b6d9"/>
<rect x="169.00" y="113.60" width="33.00" height="8.40" fill="#72b6d9"/>
<rect x="202.00" y="113.60" width="33.00" height="8.40" fill="#72b6d9"/>
<rect x="235.00" y="113.60" width="33.00" height="8.40" fill="#72b6d9"/>
<rect x="268.00" y="113.60" width="33.00" height="8.40" fill="#72b6d9"/>
<rect x="301.00" y="113.60" width="33.00" height="8.40" fill="#72b6d9"/>
<rect x="334.00" y="113.60" width="33.00" height="8.40" fill="#72b6d9"/>
<rect x="367.00" y="113.60" width="33.00" height="8.40" fill="#72b6d9"/>
<rect x="70.00" y="105.20" width="33.00" height="8.40" fill="#84b8c9"/>
<rect x="103.00" y="105.20" width="33.00" height="8.40" fill="#72b6d9"/>
<rect x="136.00" y="105.20" width="33.00" height="8.40" fill="#72b6d9"/>
<rect x="169.00" y="105.20" width="33.00" height="8.40" fill="#72b6d9"/>
<rect x="202.00" y="105.20" width="33.00" height="8.40" fill="#72b6d9"/>
<rect x="235.00" y="105.20" width="33.00" height="8.40" fill="#72b6d9"/>
<rect x="268.00" y="105.20" width="33.00" height="8.40" fill="#72b6d9"/>
<rect x="301.00" y="105.20" width="33.00" height="8.40" fill="#72b6d9"/>
<rect x="334.00" y="105.20" width="33.00" height="8.40" fill="#72b6d9"/>
<rect x="367.00" y="105.20" width="33.00" height="8.40" fill="#72b6d9"/>
<rect x="70.00" y="96.80" width="33.00" height="8.40" fill="#72b6d9"/>
<rect x="103.00" y="96.80" width="33.00" height="8.40" fill="#72b6d9"/>
<rect x="136.00" y="96.80" width="33.00" height="8.40" fill="#72b6d9"/>
<rect x="169.00" y="96.80" width="33.00" height="8.40" fill="#72b6d9"/>
<rect x="202.00" y="96.80" width="33.00" height="8.40" fill="#72b6d9"/>
<rect x="235.00" y="96.80" width="33.00" height="8.40" fill="#72b6d9"/>
<rect x="268.00" y="96.80" width="33.00" height="8.40" fill="#72b6d9"/>
<rect x="301.00" y="96.80" width="33.00" height="8.40" fill="#72b6d9"/>
<rect x="334.00" y="96.80" width="33.00" height="8.40" fill="#72b6d9"/>
<rect x="367.00" y="96.80" width="33.00" height="8.40" fill="#72b6d9"/>
<rect x="70.00" y="88.40" width="33.00" height="8.40" fill="#72b6d9"/>
<rect x="103.00" y="88.40" width="33.00" height="8.40" fill="#72b6d9"/>
<rect x="136.00" y="88.40" width="33.00" height="8.40" fill="#72b6d9"/>
<rect x="169.00" y="88.40" width="33.00" height="8.40" fill="#72b6d9"/>
<rect x="202.00" y="88.40" width="33.00" height="8.40" fill="#72b6d9"/>
<rect x="235.00" y="88.40" width="33.00" height="8.40" fill="#72b6d9"/>
<rect x="268.00" y="88.40" width="33.00" height="8.40" fill="#72b6d9"/>
<rect x="301.00" y="88.40" width="33.00" height="8.40" fill="#72b6d9"/>
<rect x="334.00" y="88.40" width="33.00" height="8.40" fill="#72b6d9"/>
<rect x="367.00" y="88.40" width="33.00" height="8.40" fill="#72b6d9"/>
<rect x="70.00" y="80.00" width="33.00" height="8.40" fill="#72b6d9"/>
<rect x="103.00" y="80.00" width="33.00" height="8.40" fill="#72b6d9"/>
<rect x="136.00" y="80.00" width="33.00" height="8.40" fill="#72b6d9"/>
<rect x="169.00" y="80.00" width="33.00" height="8.40" fill="#72b6d9"/>
<rect x="202.00" y="80.00" width="33.00" height="8.40" fill="#72b6d9"/>
<rect x="235.00" y="80.00" width="33.00" height="8.40" fill="#72b6d9"/>
<rect x="268.00" y="80.00" width="33.00" height="8.40" fill="#72b6d9"/>
<rect x="301.00" y="80.00" width="33.00" height="8.40" fill="#72b6d9"/>
<rect x="334.00" y="80.00" width="33.00" height="8.40" fill="#72b6d9"/>
<rect x="367.00" y="80.00" width="33.00" height="8.40" fill="#72b6d9"/>

    
    <line x1="70" y1="218.6" x2="400" y2="218.6" stroke="#4cbf7a" stroke-width="1.5" stroke-dasharray="4,3" opacity="0.9"/>
    <text x="405" y="221.6" font-size="10" fill="#7ae0a0" font-weight="600">G=200</text>

    <!-- Axes -->
    <line x1="70" y1="500" x2="400" y2="500" stroke="#4a5470" stroke-width="1"/>
    <line x1="70" y1="500" x2="70" y2="80" stroke="#4a5470" stroke-width="1"/>

    <g font-size="9" fill="#8a95a8">
      <text x="70" y="515" text-anchor="middle">0</text>
      <text x="185" y="515" text-anchor="middle">3</text>
      <text x="300" y="515" text-anchor="middle">6</text>
      <text x="400" y="515" text-anchor="middle">9</text>
    </g>
    <text x="62" y="495.8" text-anchor="end" font-size="9" fill="#8a95a8">14</text>
<text x="62" y="420.2" text-anchor="end" font-size="9" fill="#8a95a8">29</text>
<text x="62" y="336.2" text-anchor="end" font-size="9" fill="#8a95a8">65</text>
<text x="62" y="252.2" text-anchor="end" font-size="9" fill="#8a95a8">143</text>
<text x="62" y="168.2" text-anchor="end" font-size="9" fill="#8a95a8">315</text>
<text x="62" y="84.2" text-anchor="end" font-size="9" fill="#8a95a8">697</text>


    <text x="405" y="504" font-size="11" fill="#a8b0c0" font-weight="600">t</text>
    <text x="68" y="72" text-anchor="middle" font-size="11" fill="#a8b0c0" font-weight="600">W</text>

    <!-- Color legend -->
    <g transform="translate(55, 535)">
      <text x="0" y="12" font-size="10" fill="#a8b0c0" font-weight="600">Equity %</text>
      <rect x="60" y="2" width="260" height="14" fill="url(#eqGrad)"/>
      <defs>
        <linearGradient id="eqGrad" x1="0%" y1="0%" x2="100%" y2="0%">
          <stop offset="0%" stop-color="#64b4e6"/>
          <stop offset="50%" stop-color="#f0c869"/>
          <stop offset="100%" stop-color="#e67878"/>
        </linearGradient>
      </defs>
      <text x="60" y="30" font-size="9" fill="#8a95a8">5%</text>
      <text x="190" y="30" text-anchor="middle" font-size="9" fill="#8a95a8">50%</text>
      <text x="320" y="30" text-anchor="end" font-size="9" fill="#8a95a8">95%</text>
    </g>

    <!-- Observations -->
    <g transform="translate(0, 580)" font-size="9.5" fill="#d0d0d0">
      <text x="10" y="0" fill="#f0c869" font-weight="700">관찰</text>
      <text x="10" y="16">· 낮은 W·이른 t: 공격적 (gambler)</text>
      <text x="10" y="31">· 높은 W·늦은 t: 보수적 (lock-in)</text>
      <text x="10" y="46">· G 경계 근처에서 policy 급변</text>
    </g>
  </g>

  <!-- RIGHT: Success probability + distribution comparison -->
  <g transform="translate(480, 125)">
    <text x="340" y="25" text-anchor="middle" font-size="14" font-weight="700" fill="#f0c869">
      Goal 달성 확률 · 5개 전략 비교
    </text>

    <!-- Bar chart of success probs -->
    <rect x="0" y="45" width="680" height="300" rx="8" fill="#0a1a2a" stroke="#2a3048" stroke-width="0.5"/>
    <rect x="80" y="171.5" width="100" height="138.5" fill="#f0c869" stroke="#0a1a2a" stroke-width="1" rx="3"/>
    <text x="130.0" y="163.5" text-anchor="middle" font-size="14" fill="#f0c869" font-weight="700">62.9%</text>
    <text x="130.0" y="325" text-anchor="middle" font-size="10.5" fill="#e8e8e8" font-weight="600">DP</text>
    <rect x="200" y="233.8" width="100" height="76.2" fill="#e07a7a" stroke="#0a1a2a" stroke-width="1" rx="3"/>
    <text x="250.0" y="225.8" text-anchor="middle" font-size="14" fill="#e07a7a" font-weight="700">34.6%</text>
    <text x="250.0" y="325" text-anchor="middle" font-size="10.5" fill="#e8e8e8" font-weight="600">TDF</text>
    <rect x="320" y="207.3" width="100" height="102.7" fill="#7ab8e0" stroke="#0a1a2a" stroke-width="1" rx="3"/>
    <text x="370.0" y="199.3" text-anchor="middle" font-size="14" fill="#7ab8e0" font-weight="700">46.7%</text>
    <text x="370.0" y="325" text-anchor="middle" font-size="10.5" fill="#e8e8e8" font-weight="600">BH 70/30</text>
    <rect x="440" y="187.5" width="100" height="122.5" fill="#a874d4" stroke="#0a1a2a" stroke-width="1" rx="3"/>
    <text x="490.0" y="179.5" text-anchor="middle" font-size="14" fill="#a874d4" font-weight="700">55.7%</text>
    <text x="490.0" y="325" text-anchor="middle" font-size="10.5" fill="#e8e8e8" font-weight="600">All Equity</text>
    <rect x="560" y="309.6" width="100" height="0.4" fill="#5a7a7a" stroke="#0a1a2a" stroke-width="1" rx="3"/>
    <text x="610.0" y="301.6" text-anchor="middle" font-size="14" fill="#5a7a7a" font-weight="700">0.2%</text>
    <text x="610.0" y="325" text-anchor="middle" font-size="10.5" fill="#e8e8e8" font-weight="600">All Bond</text>
    <line x1="50" y1="255.0" x2="670" y2="255.0" stroke="#3a4460" stroke-width="0.3" stroke-dasharray="2,3"/>
    <text x="45" y="258.0" text-anchor="end" font-size="9" fill="#8a95a8">25%</text>
    <line x1="50" y1="200.0" x2="670" y2="200.0" stroke="#3a4460" stroke-width="0.3" stroke-dasharray="2,3"/>
    <text x="45" y="203.0" text-anchor="end" font-size="9" fill="#8a95a8">50%</text>
    <line x1="50" y1="145.0" x2="670" y2="145.0" stroke="#3a4460" stroke-width="0.3" stroke-dasharray="2,3"/>
    <text x="45" y="148.0" text-anchor="end" font-size="9" fill="#8a95a8">75%</text>
    <line x1="50" y1="310" x2="670" y2="310" stroke="#4a5470" stroke-width="1"/>
    <text x="45" y="313" text-anchor="end" font-size="9" fill="#8a95a8">0%</text>
  </g>

  <!-- Stats table -->
  <g transform="translate(480, 475)">
    <rect x="0" y="0" width="680" height="210" rx="8" fill="#0a1a2a" stroke="#d4a244" stroke-width="0.8"/>
    <text x="340" y="25" text-anchor="middle" font-size="13" font-weight="700" fill="#f0c869">
      Terminal Wealth Statistics (n = 10,000 paths)
    </text>
    <line x1="30" y1="37" x2="650" y2="37" stroke="#d4a244" stroke-width="0.3"/>

    <g font-size="10.5">
      <!-- Header -->
      <text x="30" y="60" fill="#8a95a8">Strategy</text>
      <text x="200" y="60" fill="#8a95a8" text-anchor="end">Success</text>
      <text x="290" y="60" fill="#8a95a8" text-anchor="end">Mean</text>
      <text x="380" y="60" fill="#8a95a8" text-anchor="end">P10</text>
      <text x="470" y="60" fill="#8a95a8" text-anchor="end">P50</text>
      <text x="560" y="60" fill="#8a95a8" text-anchor="end">P90</text>
      <line x1="25" y1="68" x2="650" y2="68" stroke="#3a4460" stroke-width="0.4"/>
      <circle cx="35" cy="81" r="4" fill="#f0c869"/>
      <text x="45" y="85" fill="#e8e8e8" font-weight="600">DP</text>
      <text x="200" y="85" text-anchor="end" fill="#7ae0a0" font-weight="700">62.9%</text>
      <text x="290" y="85" text-anchor="end" fill="#d0d0d0">203.7</text>
      <text x="380" y="85" text-anchor="end" fill="#d0d0d0">103.3</text>
      <text x="470" y="85" text-anchor="end" fill="#d0d0d0">220.8</text>
      <text x="560" y="85" text-anchor="end" fill="#d0d0d0">275.4</text>
      <circle cx="35" cy="103" r="4" fill="#e07a7a"/>
      <text x="45" y="107" fill="#e8e8e8" font-weight="600">TDF</text>
      <text x="200" y="107" text-anchor="end" fill="#d0d0d0" font-weight="500">34.6%</text>
      <text x="290" y="107" text-anchor="end" fill="#d0d0d0">185.3</text>
      <text x="380" y="107" text-anchor="end" fill="#d0d0d0">112.1</text>
      <text x="470" y="107" text-anchor="end" fill="#d0d0d0">174.5</text>
      <text x="560" y="107" text-anchor="end" fill="#d0d0d0">271.4</text>
      <circle cx="35" cy="125" r="4" fill="#7ab8e0"/>
      <text x="45" y="129" fill="#e8e8e8" font-weight="600">BH 70/30</text>
      <text x="200" y="129" text-anchor="end" fill="#d0d0d0" font-weight="500">46.7%</text>
      <text x="290" y="129" text-anchor="end" fill="#d0d0d0">213.1</text>
      <text x="380" y="129" text-anchor="end" fill="#d0d0d0">109.8</text>
      <text x="470" y="129" text-anchor="end" fill="#d0d0d0">192.1</text>
      <text x="560" y="129" text-anchor="end" fill="#d0d0d0">338.8</text>
      <circle cx="35" cy="147" r="4" fill="#a874d4"/>
      <text x="45" y="151" fill="#e8e8e8" font-weight="600">All Equity</text>
      <text x="200" y="151" text-anchor="end" fill="#d0d0d0" font-weight="500">55.7%</text>
      <text x="290" y="151" text-anchor="end" fill="#d0d0d0">262.2</text>
      <text x="380" y="151" text-anchor="end" fill="#d0d0d0">101.2</text>
      <text x="470" y="151" text-anchor="end" fill="#d0d0d0">216.8</text>
      <text x="560" y="151" text-anchor="end" fill="#d0d0d0">469.8</text>
      <circle cx="35" cy="169" r="4" fill="#5a7a7a"/>
      <text x="45" y="173" fill="#e8e8e8" font-weight="600">All Bond</text>
      <text x="200" y="173" text-anchor="end" fill="#d0d0d0" font-weight="500">0.2%</text>
      <text x="290" y="173" text-anchor="end" fill="#d0d0d0">127.2</text>
      <text x="380" y="173" text-anchor="end" fill="#d0d0d0">103.3</text>
      <text x="470" y="173" text-anchor="end" fill="#d0d0d0">125.5</text>
      <text x="560" y="173" text-anchor="end" fill="#d0d0d0">152.9</text>

    </g>

    <line x1="25" y1="195" x2="650" y2="195" stroke="#3a4460" stroke-width="0.4"/>
    <text x="30" y="205" font-size="10" fill="#a8b0c0" font-style="italic">
      DP 우위: TDF 대비 +28.3%p / All-Equity 대비 +7.3%p · All-Bond 실패율 압도적
    </text>
  </g>

  <!-- Bottom conclusion -->
  <g transform="translate(40, 715)">
    <rect x="0" y="0" width="1120" height="70" rx="10" fill="#0a1a2a" stroke="#d4a244" stroke-width="1"/>
    <text x="560" y="25" text-anchor="middle" font-size="13" fill="#f0c869" font-weight="700">
      핵심 실증 결과
    </text>
    <text x="30" y="48" font-size="11" fill="#d0d0d0">
      <tspan fill="#7ae0a0" font-weight="700">① DP가 모든 strategy에서 최고 달성확률</tspan>
      <tspan fill="#a8b0c0"> — Bellman optimality의 직접 결과. 평균 수익은 All-Equity가 높지만 </tspan>
      <tspan fill="#ff9090">downside(P10)</tspan>
      <tspan fill="#a8b0c0">가 훨씬 크다.</tspan>
    </text>
    <text x="30" y="63" font-size="11" fill="#d0d0d0">
      <tspan fill="#f0c869" font-weight="700">② DP는 state-dependent risk taking</tspan>
      <tspan fill="#a8b0c0"> — Heatmap은 "못 벌었으면 공격, 충분하면 보수"라는 PT 직관의 수학적 구현.</tspan>
    </text>
  </g>

  <text x="1140" y="810" text-anchor="end" font-size="10" fill="#5a6478" font-style="italic">
    GBI Curriculum · Week 08 · Figure 2 · Python DORS2020 구현
  </text>
</svg>