<svg xmlns="http://www.w3.org/2000/svg" viewBox="0 0 1200 820" font-family="'Inter', 'Noto Sans KR', -apple-system, sans-serif">
  <rect width="1200" height="820" fill="#0f1629"/>

  <defs>
    <linearGradient id="goldG4b" x1="0%" y1="0%" x2="100%" y2="0%">
      <stop offset="0%" stop-color="#d4a244"/>
      <stop offset="100%" stop-color="#f0c869"/>
    </linearGradient>
  </defs>

  <text x="600" y="48" text-anchor="middle" font-size="26" font-weight="700" fill="#f5f5f5">
    Aggregate MV Efficiency · 수치 증명
  </text>
  <text x="600" y="78" text-anchor="middle" font-size="14" fill="url(#goldG4b)" font-weight="500">
    Das-Markowitz-Scheid-Statman (2010) · 3-asset · 3-account · π = (0.6, 0.2, 0.2)
  </text>
  <line x1="200" y1="100" x2="1000" y2="100" stroke="#d4a244" stroke-width="1" opacity="0.4"/>

  <!-- LEFT: Chart -->
  <g transform="translate(50, 140)">
    <text x="250" y="25" text-anchor="middle" font-size="15" font-weight="700" fill="#f0c869">
      MV Frontier + 계정별 해 + Aggregate
    </text>

    <rect x="10" y="50" width="480" height="340" rx="6" fill="#0a1a2a" stroke="#2a3048" stroke-width="0.5"/>

    <!-- Axes -->
    <line x1="60" y1="370" x2="440" y2="370" stroke="#4a5470" stroke-width="1"/>
    <line x1="60" y1="60" x2="60" y2="370" stroke="#4a5470" stroke-width="1"/>

    <!-- x ticks -->
    <g font-size="9" fill="#8a95a8">
      <text x="60" y="385" text-anchor="middle">0</text>
      <text x="129" y="385" text-anchor="middle">0.1</text>
      <text x="198" y="385" text-anchor="middle">0.2</text>
      <text x="267" y="385" text-anchor="middle">0.3</text>
      <text x="336" y="385" text-anchor="middle">0.4</text>
      <text x="405" y="385" text-anchor="middle">0.5</text>
    </g>

    <!-- y ticks -->
    <g font-size="9" fill="#8a95a8">
      <text x="52" y="298" text-anchor="end">0</text>
      <text x="52" y="244" text-anchor="end">0.05</text>
      <text x="52" y="190" text-anchor="end">0.10</text>
      <text x="52" y="136" text-anchor="end">0.15</text>
      <text x="52" y="82" text-anchor="end">0.20</text>
    </g>

    <!-- Axis labels -->
    <text x="445" y="374" font-size="11" fill="#a8b0c0">σ</text>
    <text x="52" y="55" text-anchor="middle" font-size="11" fill="#a8b0c0">μ</text>

    <!-- Gridlines -->
    <line x1="129.1" y1="60" x2="129.1" y2="370" stroke="#2a3048" stroke-width="0.3" stroke-dasharray="2,3"/>
    <line x1="198.2" y1="60" x2="198.2" y2="370" stroke="#2a3048" stroke-width="0.3" stroke-dasharray="2,3"/>
    <line x1="267.3" y1="60" x2="267.3" y2="370" stroke="#2a3048" stroke-width="0.3" stroke-dasharray="2,3"/>
    <line x1="60" y1="190.0" x2="440" y2="190.0" stroke="#2a3048" stroke-width="0.3" stroke-dasharray="2,3"/>
    <line x1="60" y1="135.8" x2="440" y2="135.8" stroke="#2a3048" stroke-width="0.3" stroke-dasharray="2,3"/>

    <!-- MV Frontier curve -->
    <path d="M 87.4 276.7 L 87.2 275.1 L 87.2 273.6 L 87.5 272.0 L 88.0 270.5 L 88.7 268.9 L 89.6 267.4 L 90.7 265.8 L 92.0 264.3 L 93.4 262.7 L 94.9 261.2 L 96.6 259.6 L 98.4 258.1 L 100.2 256.5 L 102.1 255.0 L 104.1 253.5 L 106.2 251.9 L 108.3 250.4 L 110.4 248.8 L 112.6 247.3 L 114.8 245.7 L 117.1 244.2 L 119.4 242.6 L 121.7 241.1 L 124.0 239.5 L 126.3 238.0 L 128.7 236.4 L 131.0 234.9 L 133.4 233.3 L 135.8 231.8 L 138.2 230.2 L 140.6 228.7 L 143.0 227.1 L 145.5 225.6 L 147.9 224.0 L 150.3 222.5 L 152.8 221.0 L 155.3 219.4 L 157.7 217.9 L 160.2 216.3 L 162.7 214.8 L 165.1 213.2 L 167.6 211.7 L 170.1 210.1 L 172.6 208.6 L 175.1 207.0 L 177.6 205.5 L 180.1 203.9 L 182.6 202.4 L 185.1 200.8 " stroke="#7ab8e0" stroke-width="2.5" fill="none"/>
    <text x="230" y="200" font-size="11" fill="#7ab8e0" font-weight="600">MV frontier</text>

    <!-- Account points -->
    <circle cx="95.7" cy="260.5" r="8" fill="#4cbf7a" stroke="#0a1a2a" stroke-width="1.5"/>
    <text x="107.7" y="264.5" font-size="10.5" fill="#4cbf7a" font-weight="600">A1 · Retirement</text>
    <circle cx="152.2" cy="221.3" r="8" fill="#f0c869" stroke="#0a1a2a" stroke-width="1.5"/>
    <text x="164.2" y="225.3" font-size="10.5" fill="#f0c869" font-weight="600">A2 · Education</text>
    <circle cx="394.5" cy="73.5" r="8" fill="#e07a7a" stroke="#0a1a2a" stroke-width="1.5"/>
    <text x="406.5" y="77.5" font-size="10.5" fill="#e07a7a" font-weight="600">A3 · Bequest</text>
    <circle cx="161.9" cy="215.3" r="9" fill="none" stroke="#d4a244" stroke-width="3"/>
    <circle cx="161.9" cy="215.3" r="3" fill="#d4a244"/>
    <text x="174.9" y="205.3" font-size="11" fill="#d4a244" font-weight="700">Aggregate Σπ_k w_k*</text>
    <text x="174.9" y="219.3" font-size="9.5" fill="#d4a244" font-style="italic">→ MV frontier 위!</text>
  </g>
  <!-- RIGHT: Numerical table & narrative -->
  <g transform="translate(600, 140)">
    <text x="250" y="25" text-anchor="middle" font-size="15" font-weight="700" fill="#f0c869">
      수치 결과 (Python cvxpy SOCP)
    </text>
    
    <rect x="10" y="50" width="560" height="200" rx="8" fill="#0a1a2a" stroke="#2a3048" stroke-width="0.5"/>
    
    <!-- Table header -->
    <text x="30" y="80" font-size="10.5" fill="#8a95a8">Account</text>
    <text x="160" y="80" font-size="10.5" fill="#8a95a8">H</text>
    <text x="210" y="80" font-size="10.5" fill="#8a95a8">α</text>
    <text x="260" y="80" font-size="10.5" fill="#8a95a8">w = (bond, stock, cmd)</text>
    <text x="455" y="80" font-size="10.5" fill="#8a95a8">μ_p</text>
    <text x="510" y="80" font-size="10.5" fill="#8a95a8">σ_p</text>
    <line x1="25" y1="88" x2="555" y2="88" stroke="#3a4460" stroke-width="0.5"/>
    <circle cx="25" cy="104" r="4" fill="#4cbf7a"/>
    <text x="35" y="108" font-size="10.5" fill="#e8e8e8" font-weight="600">Retirement</text>
    <text x="160" y="108" font-size="10.5" fill="#d0d0d0">−0.05</text>
    <text x="210" y="108" font-size="10.5" fill="#d0d0d0">0.05</text>
    <text x="260" y="108" font-size="10" fill="#b0d4f0" font-family="monospace">(0.73, 0.13, 0.14)</text>
    <text x="455" y="108" font-size="10.5" fill="#d0d0d0">0.0349</text>
    <text x="510" y="108" font-size="10.5" fill="#d0d0d0">0.0516</text>
    <circle cx="25" cy="128" r="4" fill="#f0c869"/>
    <text x="35" y="132" font-size="10.5" fill="#e8e8e8" font-weight="600">Education</text>
    <text x="160" y="132" font-size="10.5" fill="#d0d0d0">−0.10</text>
    <text x="210" y="132" font-size="10.5" fill="#d0d0d0">0.10</text>
    <text x="260" y="132" font-size="10" fill="#b0d4f0" font-family="monospace">(0.10, 0.50, 0.40)</text>
    <text x="455" y="132" font-size="10.5" fill="#d0d0d0">0.0711</text>
    <text x="510" y="132" font-size="10.5" fill="#d0d0d0">0.1335</text>
    <circle cx="25" cy="152" r="4" fill="#e07a7a"/>
    <text x="35" y="156" font-size="10.5" fill="#e8e8e8" font-weight="600">Bequest</text>
    <text x="160" y="156" font-size="10.5" fill="#d0d0d0">−0.20</text>
    <text x="210" y="156" font-size="10.5" fill="#d0d0d0">0.20</text>
    <text x="260" y="156" font-size="10" fill="#b0d4f0" font-family="monospace">(-2.28, 1.88, 1.40)</text>
    <text x="455" y="156" font-size="10.5" fill="#d0d0d0">0.2075</text>
    <text x="510" y="156" font-size="10.5" fill="#d0d0d0">0.4842</text>
    <line x1="25" y1="168" x2="555" y2="168" stroke="#d4a244" stroke-width="0.5"/>
    <circle cx="25" cy="176" r="5" fill="none" stroke="#d4a244" stroke-width="2"/>
    <text x="35" y="180" font-size="10.5" fill="#f0c869" font-weight="700">Aggregate</text>
    <text x="160" y="180" font-size="10" fill="#d4a244" font-style="italic">π = (0.6, 0.2, 0.2)</text>
    <text x="260" y="180" font-size="10" fill="#f0c869" font-family="monospace">(-0.00, 0.56, 0.45)</text>
    <text x="455" y="180" font-size="10.5" fill="#f0c869" font-weight="600">0.0767</text>
    <text x="510" y="180" font-size="10.5" fill="#f0c869" font-weight="600">0.1475</text>
  </g>
  <!-- Bottom: Conclusion -->
  <g transform="translate(60, 560)">
    <rect x="0" y="0" width="1080" height="220" rx="10" fill="#0a1a2a" stroke="#1e5f8e" stroke-width="1"/>
    <text x="30" y="32" font-size="15" font-weight="700" fill="#f0c869">관찰 · 세 가지 Takeaway</text>
    <line x1="30" y1="45" x2="1050" y2="45" stroke="#2a4060" stroke-width="0.5"/>

    <text x="30" y="72" font-size="12" fill="#d8d8d8">
      <tspan fill="#f0c869" font-weight="700">① 계정별 해는 극단적으로 다르다.</tspan>
    </text>
    <text x="30" y="92" font-size="11" fill="#a8b0c0">
      Retirement은 bond 73%로 보수, Bequest는 −228% bond(공매도!)·+188% stock·+140% commodity의 공격적 레버리지. 같은 투자자의 세 계좌가 서로 정반대 방향.
    </text>

    <text x="30" y="120" font-size="12" fill="#d8d8d8">
      <tspan fill="#f0c869" font-weight="700">② Aggregate는 MV frontier 위에 정확히 위치한다.</tspan>
    </text>
    <text x="30" y="140" font-size="11" fill="#a8b0c0">
      Aggregate (σ=0.148, μ=0.077)은 수치적으로 MV 효율선 위. Aggregate weight = (0.00, 0.56, 0.44)는 완벽히 MV 효율 포트폴리오 형태 — Das-Markowitz Theorem의 직접 검증.
    </text>

    <text x="30" y="168" font-size="12" fill="#d8d8d8">
      <tspan fill="#f0c869" font-weight="700">③ "행동재무 해석 + 전통 MV 계산" 이 동시에 가능하다.</tspan>
    </text>
    <text x="30" y="188" font-size="11" fill="#a8b0c0">
      투자자는 (H, α, π)로 사고하고, 엔진은 MV로 계산한다. GBI가 최적화의 부담 없이 행동재무적 해석을 추가할 수 있는 수학적 근거.
    </text>
    <text x="30" y="208" font-size="10.5" fill="#7a8598" font-style="italic">
      Python 재현 코드: cvxpy SOCP formulation · Sigma_bond=0.04²·Sigma_stock=0.20²·Sigma_cmd=0.15² · ρ_ij에 Das Table 1 기반
    </text>
  </g>

  <text x="1140" y="800" text-anchor="end" font-size="10" fill="#5a6478" font-style="italic">
    GBI Curriculum · Week 04 · Figure 2
  </text>
</svg>